<svg xmlns="http://www.w3.org/2000/svg" width="1400" height="1750" viewBox="0 0 1400 1750"><style>text{font-family:"PingFang SC","Microsoft YaHei",sans-serif}</style>
<rect x="0" y="0" width="1400" height="1750" rx="10" fill="#f1f5f9" stroke="#cbd5e1"/>
<text x="35" y="48" font-size="30" fill="#172b4d">普通 ESP32 → PC817 → 遥控器按键，同时保留 LED</text>
<text x="35" y="85" font-size="22" fill="#172b4d">LED 改接到 GPIO 输入侧：每路两只独立 330Ω 电阻。遥控器保留原电池，与 ESP32 不共地。</text>
<g transform="translate(0,115)">
<rect x="25" y="0" width="1350" height="330" rx="10" fill="white" stroke="#cbd5e1"/>
<text x="45" y="35" font-size="25" fill="#172b4d">锁车  ·  GPIO26</text>
<text x="50" y="104" font-size="22" fill="#172b4d">GPIO26</text>
<polyline points="150,100 360,100" fill="none" stroke="#2563eb" stroke-width="4"/>
<circle cx="210" cy="100" r="6" fill="#2563eb"/>
<rect x="360" y="88" width="85" height="24" rx="10" fill="#fef3c7" stroke="#a16207"/>
<text x="369" y="78" font-size="18" fill="#172b4d">330Ω</text>
<polyline points="445,100 600,100" fill="none" stroke="#2563eb" stroke-width="4"/>
<path d="M210 100 V185 C230 185 230 215 210 215 V265 H285" fill="none" stroke="#2563eb" stroke-width="4"/>
<rect x="285" y="253" width="85" height="24" rx="10" fill="#fef3c7" stroke="#a16207"/>
<text x="294" y="243" font-size="18" fill="#172b4d">330Ω</text>
<polyline points="370,265 440,265" fill="none" stroke="#2563eb" stroke-width="4"/>
<circle cx="470" cy="265" r="27" fill="#fee2e2" stroke="#dc2626" stroke-width="3"/>
<text x="451" y="271" font-size="17" fill="#991b1b">LED</text>
<polyline points="497,265 560,265 560,200" fill="none" stroke="#475569" stroke-width="4"/>
<text x="414" y="313" font-size="18" fill="#172b4d">长脚 +    短脚 −</text>
<text x="220" y="223" font-size="18" fill="#172b4d">指示灯支路</text>
<polyline points="150,200 195,200" fill="none" stroke="#475569" stroke-width="4"/>
<polyline points="238,200 600,200" fill="none" stroke="#475569" stroke-width="4"/><text x="50" y="206" font-size="22" fill="#172b4d">GND</text>
<circle cx="560" cy="200" r="6" fill="#475569"/>
<rect x="600" y="60" width="220" height="170" rx="10" fill="#243247" stroke="#cbd5e1"/>
<circle cx="619" cy="77" r="6" fill="white"/>
<text x="620" y="109" font-size="18" fill="white">1 阳极</text>
<text x="620" y="205" font-size="18" fill="white">2 阴极</text>
<text x="744" y="109" font-size="16" fill="white">4 集电极</text>
<text x="744" y="205" font-size="16" fill="white">3 发射极</text>
<text x="657" y="157" font-size="24" fill="white">PC817</text>
<path d="M710 65 V225" stroke="#94a3b8" stroke-width="2" stroke-dasharray="5 5"/>
<text x="611" y="269" font-size="18" fill="#172b4d">印字面朝你；圆点为 1 脚</text>
<polyline points="820,100 1050,100" fill="none" stroke="#dc2626" stroke-width="4"/>
<polyline points="820,200 1050,200" fill="none" stroke="#dc2626" stroke-width="4"/>
<circle cx="1050" cy="100" r="6" fill="#dc2626"/>
<circle cx="1050" cy="200" r="6" fill="#dc2626"/>
<polyline points="1050,100 1050,125" fill="none" stroke="#dc2626" stroke-width="4"/>
<polyline points="1050,200 1050,175 1015,137" fill="none" stroke="#dc2626" stroke-width="4"/>
<text x="1070" y="106" font-size="19" fill="#172b4d">按键焊盘 A（相对正）</text>
<text x="1070" y="206" font-size="19" fill="#172b4d">按键焊盘 B（相对负）</text>
<text x="1080" y="157" font-size="18" fill="#172b4d">原按键保留</text>
<text x="850" y="265" font-size="21" fill="#b91c1c">4、3 脚并联在按键两端</text>
<text x="850" y="299" font-size="20" fill="#b91c1c">这里不接 ESP32 的 GND / 3V3</text>
</g>
<g transform="translate(0,465)">
<rect x="25" y="0" width="1350" height="330" rx="10" fill="white" stroke="#cbd5e1"/>
<text x="45" y="35" font-size="25" fill="#172b4d">解锁  ·  GPIO27</text>
<text x="50" y="104" font-size="22" fill="#172b4d">GPIO27</text>
<polyline points="150,100 360,100" fill="none" stroke="#2563eb" stroke-width="4"/>
<circle cx="210" cy="100" r="6" fill="#2563eb"/>
<rect x="360" y="88" width="85" height="24" rx="10" fill="#fef3c7" stroke="#a16207"/>
<text x="369" y="78" font-size="18" fill="#172b4d">330Ω</text>
<polyline points="445,100 600,100" fill="none" stroke="#2563eb" stroke-width="4"/>
<path d="M210 100 V185 C230 185 230 215 210 215 V265 H285" fill="none" stroke="#2563eb" stroke-width="4"/>
<rect x="285" y="253" width="85" height="24" rx="10" fill="#fef3c7" stroke="#a16207"/>
<text x="294" y="243" font-size="18" fill="#172b4d">330Ω</text>
<polyline points="370,265 440,265" fill="none" stroke="#2563eb" stroke-width="4"/>
<circle cx="470" cy="265" r="27" fill="#fee2e2" stroke="#dc2626" stroke-width="3"/>
<text x="451" y="271" font-size="17" fill="#991b1b">LED</text>
<polyline points="497,265 560,265 560,200" fill="none" stroke="#475569" stroke-width="4"/>
<text x="414" y="313" font-size="18" fill="#172b4d">长脚 +    短脚 −</text>
<text x="220" y="223" font-size="18" fill="#172b4d">指示灯支路</text>
<polyline points="150,200 195,200" fill="none" stroke="#475569" stroke-width="4"/>
<polyline points="238,200 600,200" fill="none" stroke="#475569" stroke-width="4"/><text x="50" y="206" font-size="22" fill="#172b4d">GND</text>
<circle cx="560" cy="200" r="6" fill="#475569"/>
<rect x="600" y="60" width="220" height="170" rx="10" fill="#243247" stroke="#cbd5e1"/>
<circle cx="619" cy="77" r="6" fill="white"/>
<text x="620" y="109" font-size="18" fill="white">1 阳极</text>
<text x="620" y="205" font-size="18" fill="white">2 阴极</text>
<text x="744" y="109" font-size="16" fill="white">4 集电极</text>
<text x="744" y="205" font-size="16" fill="white">3 发射极</text>
<text x="657" y="157" font-size="24" fill="white">PC817</text>
<path d="M710 65 V225" stroke="#94a3b8" stroke-width="2" stroke-dasharray="5 5"/>
<text x="611" y="269" font-size="18" fill="#172b4d">印字面朝你；圆点为 1 脚</text>
<polyline points="820,100 1050,100" fill="none" stroke="#dc2626" stroke-width="4"/>
<polyline points="820,200 1050,200" fill="none" stroke="#dc2626" stroke-width="4"/>
<circle cx="1050" cy="100" r="6" fill="#dc2626"/>
<circle cx="1050" cy="200" r="6" fill="#dc2626"/>
<polyline points="1050,100 1050,125" fill="none" stroke="#dc2626" stroke-width="4"/>
<polyline points="1050,200 1050,175 1015,137" fill="none" stroke="#dc2626" stroke-width="4"/>
<text x="1070" y="106" font-size="19" fill="#172b4d">按键焊盘 A（相对正）</text>
<text x="1070" y="206" font-size="19" fill="#172b4d">按键焊盘 B（相对负）</text>
<text x="1080" y="157" font-size="18" fill="#172b4d">原按键保留</text>
<text x="850" y="265" font-size="21" fill="#b91c1c">4、3 脚并联在按键两端</text>
<text x="850" y="299" font-size="20" fill="#b91c1c">这里不接 ESP32 的 GND / 3V3</text>
</g>
<g transform="translate(0,815)">
<rect x="25" y="0" width="1350" height="330" rx="10" fill="white" stroke="#cbd5e1"/>
<text x="45" y="35" font-size="25" fill="#172b4d">启动 / 闪电  ·  GPIO25</text>
<text x="50" y="104" font-size="22" fill="#172b4d">GPIO25</text>
<polyline points="150,100 360,100" fill="none" stroke="#2563eb" stroke-width="4"/>
<circle cx="210" cy="100" r="6" fill="#2563eb"/>
<rect x="360" y="88" width="85" height="24" rx="10" fill="#fef3c7" stroke="#a16207"/>
<text x="369" y="78" font-size="18" fill="#172b4d">330Ω</text>
<polyline points="445,100 600,100" fill="none" stroke="#2563eb" stroke-width="4"/>
<path d="M210 100 V185 C230 185 230 215 210 215 V265 H285" fill="none" stroke="#2563eb" stroke-width="4"/>
<rect x="285" y="253" width="85" height="24" rx="10" fill="#fef3c7" stroke="#a16207"/>
<text x="294" y="243" font-size="18" fill="#172b4d">330Ω</text>
<polyline points="370,265 440,265" fill="none" stroke="#2563eb" stroke-width="4"/>
<circle cx="470" cy="265" r="27" fill="#fee2e2" stroke="#dc2626" stroke-width="3"/>
<text x="451" y="271" font-size="17" fill="#991b1b">LED</text>
<polyline points="497,265 560,265 560,200" fill="none" stroke="#475569" stroke-width="4"/>
<text x="414" y="313" font-size="18" fill="#172b4d">长脚 +    短脚 −</text>
<text x="220" y="223" font-size="18" fill="#172b4d">指示灯支路</text>
<polyline points="150,200 195,200" fill="none" stroke="#475569" stroke-width="4"/>
<polyline points="238,200 600,200" fill="none" stroke="#475569" stroke-width="4"/><text x="50" y="206" font-size="22" fill="#172b4d">GND</text>
<circle cx="560" cy="200" r="6" fill="#475569"/>
<rect x="600" y="60" width="220" height="170" rx="10" fill="#243247" stroke="#cbd5e1"/>
<circle cx="619" cy="77" r="6" fill="white"/>
<text x="620" y="109" font-size="18" fill="white">1 阳极</text>
<text x="620" y="205" font-size="18" fill="white">2 阴极</text>
<text x="744" y="109" font-size="16" fill="white">4 集电极</text>
<text x="744" y="205" font-size="16" fill="white">3 发射极</text>
<text x="657" y="157" font-size="24" fill="white">PC817</text>
<path d="M710 65 V225" stroke="#94a3b8" stroke-width="2" stroke-dasharray="5 5"/>
<text x="611" y="269" font-size="18" fill="#172b4d">印字面朝你；圆点为 1 脚</text>
<polyline points="820,100 1050,100" fill="none" stroke="#dc2626" stroke-width="4"/>
<polyline points="820,200 1050,200" fill="none" stroke="#dc2626" stroke-width="4"/>
<circle cx="1050" cy="100" r="6" fill="#dc2626"/>
<circle cx="1050" cy="200" r="6" fill="#dc2626"/>
<polyline points="1050,100 1050,125" fill="none" stroke="#dc2626" stroke-width="4"/>
<polyline points="1050,200 1050,175 1015,137" fill="none" stroke="#dc2626" stroke-width="4"/>
<text x="1070" y="106" font-size="19" fill="#172b4d">按键焊盘 A（相对正）</text>
<text x="1070" y="206" font-size="19" fill="#172b4d">按键焊盘 B（相对负）</text>
<text x="1080" y="157" font-size="18" fill="#172b4d">原按键保留</text>
<text x="850" y="265" font-size="21" fill="#b91c1c">4、3 脚并联在按键两端</text>
<text x="850" y="299" font-size="20" fill="#b91c1c">这里不接 ESP32 的 GND / 3V3</text>
</g><g transform="translate(0,1165)">
<rect x="25" y="0" width="1350" height="330" rx="10" fill="white" stroke="#cbd5e1"/>
<text x="45" y="35" font-size="25" fill="#172b4d">寻车 / 喇叭  ·  GPIO33</text>
<text x="50" y="104" font-size="22" fill="#172b4d">GPIO33</text>
<polyline points="150,100 360,100" fill="none" stroke="#2563eb" stroke-width="4"/>
<circle cx="210" cy="100" r="6" fill="#2563eb"/>
<rect x="360" y="88" width="85" height="24" rx="10" fill="#fef3c7" stroke="#a16207"/>
<text x="369" y="78" font-size="18" fill="#172b4d">330Ω</text>
<polyline points="445,100 600,100" fill="none" stroke="#2563eb" stroke-width="4"/>
<path d="M210 100 V185 C230 185 230 215 210 215 V265 H285" fill="none" stroke="#2563eb" stroke-width="4"/>
<rect x="285" y="253" width="85" height="24" rx="10" fill="#fef3c7" stroke="#a16207"/>
<text x="294" y="243" font-size="18" fill="#172b4d">330Ω</text>
<polyline points="370,265 440,265" fill="none" stroke="#2563eb" stroke-width="4"/>
<circle cx="470" cy="265" r="27" fill="#fee2e2" stroke="#dc2626" stroke-width="3"/>
<text x="451" y="271" font-size="17" fill="#991b1b">LED</text>
<polyline points="497,265 560,265 560,200" fill="none" stroke="#475569" stroke-width="4"/>
<text x="414" y="313" font-size="18" fill="#172b4d">长脚 +    短脚 −</text>
<text x="220" y="223" font-size="18" fill="#172b4d">指示灯支路</text>
<polyline points="150,200 195,200" fill="none" stroke="#475569" stroke-width="4"/>
<polyline points="238,200 600,200" fill="none" stroke="#475569" stroke-width="4"/><text x="50" y="206" font-size="22" fill="#172b4d">GND</text>
<circle cx="560" cy="200" r="6" fill="#475569"/>
<rect x="600" y="60" width="220" height="170" rx="10" fill="#243247" stroke="#cbd5e1"/>
<circle cx="619" cy="77" r="6" fill="white"/>
<text x="620" y="109" font-size="18" fill="white">1 阳极</text>
<text x="620" y="205" font-size="18" fill="white">2 阴极</text>
<text x="744" y="109" font-size="16" fill="white">4 集电极</text>
<text x="744" y="205" font-size="16" fill="white">3 发射极</text>
<text x="657" y="157" font-size="24" fill="white">PC817</text>
<path d="M710 65 V225" stroke="#94a3b8" stroke-width="2" stroke-dasharray="5 5"/>
<text x="611" y="269" font-size="18" fill="#172b4d">印字面朝你；圆点为 1 脚</text>
<polyline points="820,100 1050,100" fill="none" stroke="#dc2626" stroke-width="4"/>
<polyline points="820,200 1050,200" fill="none" stroke="#dc2626" stroke-width="4"/>
<circle cx="1050" cy="100" r="6" fill="#dc2626"/>
<circle cx="1050" cy="200" r="6" fill="#dc2626"/>
<polyline points="1050,100 1050,125" fill="none" stroke="#dc2626" stroke-width="4"/>
<polyline points="1050,200 1050,175 1015,137" fill="none" stroke="#dc2626" stroke-width="4"/>
<text x="1070" y="106" font-size="19" fill="#172b4d">按键焊盘 A（相对正）</text>
<text x="1070" y="206" font-size="19" fill="#172b4d">按键焊盘 B（相对负）</text>
<text x="1080" y="157" font-size="18" fill="#172b4d">原按键保留</text>
<text x="850" y="265" font-size="21" fill="#b91c1c">4、3 脚并联在按键两端</text>
<text x="850" y="299" font-size="20" fill="#b91c1c">这里不接 ESP32 的 GND / 3V3</text>
</g>
<text x="35" y="1540" font-size="22" fill="#172b4d">① 拔 USB、取下遥控器电池再焊线。四脚按键须测出“松开断路，按下导通”的两个触点。</text>
<text x="35" y="1580" font-size="22" fill="#172b4d">② 装电池，用直流电压档测触点对：4 脚接相对正端，3 脚接相对负端；焊接前再次取下电池。</text>
<text x="35" y="1620" font-size="22" fill="#172b4d">③ 若电压方向跳变、按键为扫描矩阵，先确认电路，不要按图猜焊盘位置。A/B 不是固定左右脚。</text>
<text x="35" y="1660" font-size="22" fill="#172b4d">④ GPIO26 / 27 / 25 / 33 各可加 10kΩ 到 ESP32 GND。LED 亮仅表示 GPIO 输出，不证明车辆动作成功。</text>
<text x="35" y="1700" font-size="22" fill="#b91c1c">从旧测试图迁移：LED 和它的电阻移到左侧支路；彻底断开光耦 3、4 脚原来的 ESP32 电源线。</text>
</svg>