<svg xmlns="http://www.w3.org/2000/svg" width="1600" height="620" viewBox="0 0 1600 620"><defs><linearGradient id="b" x2="1" y2="1"><stop stop-color="#07152b"/><stop offset="1" stop-color="#17375d"/></linearGradient><linearGradient id="c" y2="1"><stop stop-color="#1b426b"/><stop offset="1" stop-color="#0d233f"/></linearGradient><marker id="a" markerWidth="10" markerHeight="10" refX="8" refY="3" orient="auto"><path d="M0 0v6l9-3z" fill="#55e6d1"/></marker></defs><rect width="1600" height="620" rx="34" fill="url(#b)"/><text x="800" y="64" text-anchor="middle" font-family="Arial" font-size="30" font-weight="bold" fill="white">手机遥控钥匙 · 低成本隔离控制链路</text><g font-family="Arial" text-anchor="middle"><g transform="translate(55 155)"><rect width="220" height="280" rx="26" fill="url(#c)" stroke="#38d9c0" stroke-width="2"/><text x="110" y="85" font-size="82">📱</text><text x="110" y="150" fill="white" font-size="23" font-weight="bold">微信小程序</text><text x="110" y="190" fill="#b7d5e8" font-size="16">密码 · 明确点按 · BLE</text></g><g transform="translate(365 155)"><rect width="220" height="280" rx="26" fill="url(#c)" stroke="#59baff" stroke-width="2"/><text x="110" y="85" font-size="78">◉</text><text x="110" y="150" fill="white" font-size="23" font-weight="bold">ESP32</text><text x="110" y="190" fill="#b7d5e8" font-size="16">HMAC · 180 ms 脉冲</text></g><g transform="translate(675 155)"><rect width="220" height="280" rx="26" fill="url(#c)" stroke="#f5b84b" stroke-width="2"/><text x="110" y="85" font-size="72">⚡</text><text x="110" y="150" fill="white" font-size="23" font-weight="bold">4 路光耦</text><text x="110" y="190" fill="#b7d5e8" font-size="16">PC817 · 电气隔离</text></g><g transform="translate(985 155)"><rect width="220" height="280" rx="26" fill="url(#c)" stroke="#d88cff" stroke-width="2"/><text x="110" y="85" font-size="75">🔑</text><text x="110" y="150" fill="white" font-size="23" font-weight="bold">原装遥控器</text><text x="110" y="190" fill="#b7d5e8" font-size="16">滚动码 · RF 发射</text></g><g transform="translate(1295 155)"><rect width="250" height="280" rx="26" fill="url(#c)" stroke="#6be887" stroke-width="2"/><text x="125" y="85" font-size="82">🛵</text><text x="125" y="150" fill="white" font-size="23" font-weight="bold">电动车</text><text x="125" y="190" fill="#b7d5e8" font-size="16">原装无线接收</text></g></g><g stroke="#55e6d1" stroke-width="5" fill="none" marker-end="url(#a)"><path d="M275 295h75"/><path d="M585 295h75"/><path d="M895 295h75"/><path d="M1205 295h75"/></g><g font-family="Arial" font-size="15" fill="#65f3dc" text-anchor="middle"><text x="313" y="276">BLE</text><text x="623" y="276">GPIO</text><text x="933" y="276">按键</text><text x="1243" y="276">RF</text></g><rect x="480" y="500" width="640" height="66" rx="33" fill="#0b2039" stroke="#345a7d"/><text x="800" y="542" text-anchor="middle" font-family="Arial" font-size="19" fill="#d8ebf7">🔒 ESP32 与遥控器固定在密码锁后备箱内 · 手机是日常遥控钥匙</text></svg>
